<mxfile host="app.diagrams.net" modified="2024-01-16T17:23:26.783Z" agent="Mozilla/5.0 (Macintosh; Intel Mac OS X 10_15_7) AppleWebKit/605.1.15 (KHTML, like Gecko) Version/15.0 Safari/605.1.15" version="22.1.19" etag="WAr6RUFGHElpM4e8BfMo" type="github">
  <diagram name="Page-1" id="lSW6hdSYbBhac9hiKwze">
    <mxGraphModel>
      <root>
        <mxCell id="0" />
        <mxCell id="1" parent="0" />
      </root>
    </mxGraphModel>
  </diagram>
</mxfile>
